<?xml version="1.0" encoding="UTF-8"?>
<svg xmlns="http://www.w3.org/2000/svg" version="1.1" viewBox="0 0 128 128">
  <defs>
    <style>
      .cls-1 {
        fill: #fff;
      }
    </style>
  </defs>
  <!-- Generator: Adobe Illustrator 28.7.1, SVG Export Plug-In . SVG Version: 1.2.0 Build 142)  -->
  <g>
    <g id="Layer_1">
      <g id="zxlynu">
        <g>
          <path d="M1725.1-51.8v331.1c12.1,2,24,4.1,36,6,69.7,11.6,139.3,23.2,209,34.8,64.9,10.8,129.8,21.5,194.7,32.3,38.9,6.4,77.9,12.9,116.8,19.2,10.4,1.7,17.8,10.2,17.8,20.9,0,43.8-.1,87.7-.2,131.5,0,14-6.4,21.4-20.5,23.6-87.9,13.3-175.9,26.6-263.8,40-89.3,13.5-178.5,27.1-267.8,40.7-12.8,2-25.7,4.2-38.5,5.8-4,.5-8.3-.2-12.4-.8-78.7-11.9-157.5-23.8-236.2-35.8-104.7-15.9-209.5-31.8-314.2-47.6-5.6-.8-11.2-1.6-16.8-2.5-11.4-1.8-18.4-9.8-18.4-21.3,0-44.7,0-89.3,0-134,0-10.4,6.9-18.6,17.1-20.3,66.7-11.1,133.4-22.1,200.1-33.1,78.5-13,157.1-26,235.6-39.1,38.6-6.4,77.2-12.8,115.8-19.2,1.6-.3,3.2-.7,5.2-1.1V-51.8c-1.9,0-3.7,0-5.4,0-26.8,0-53.7,0-80.5,0-32.2-.2-58.6-23.3-62.7-54.7-.4-3-.4-6-.4-9,0-107.3,0-214.6,0-322,0-35.3,27-63.1,62.4-63.3,50.2-.4,100.3-.2,150.5,0,7.3,0,15.2-1.7,21.7,3.6,1.9,1.6,3.9,3.1,5.6,4.9,31.2,34.3,62.3,68.6,93.4,102.9,4,4.4,5.6,9.7,5.6,15.6,0,85.7,0,171.3,0,257,0,37.8-27.6,65.2-65.5,65.1-25.3,0-50.7,0-76,0-2.5,0-5,0-8,0ZM1739.1-461c-2.7,0-4.5,0-6.3,0-39.5,0-79,0-118.5,0-5.7,0-11.3-.1-17,.3-13.1.9-21.9,10.2-21.9,23.3,0,107.3,0,214.6.1,322,0,4.4,1.5,9.3,3.7,13.2,4.7,8.1,12.8,10.6,21.8,10.6,69.3,0,138.6,0,208,0,16.1,0,25.4-9.5,25.4-25.6,0-77.5,0-155,0-232.5v-5.7c-2.5,0-4.3,0-6.1,0-22.2,0-44.3,0-66.5,0-15,0-22.8-7.8-22.8-22.8,0-25.5,0-51,0-76.5,0-1.8,0-3.6,0-6.1ZM1684.6,320c-141.4,23.5-282.1,46.9-422.9,70.3,1,1.1,1.9,1.3,2.9,1.5,60.8,9.2,121.5,18.5,182.3,27.7,78.6,11.9,157.1,23.9,235.7,35.7,8.8,1.3,18,3.4,26.7,2.4,22.5-2.5,44.8-6.5,67.2-9.9,54.5-8.2,109-16.5,163.6-24.7,56.2-8.5,112.3-17,168.5-25.5,13-2,26.1-4,39.1-6,0-.4,0-.8,0-1.2-140.7-23.4-281.4-46.7-422.4-70.2v50.7c.4.2.8.5,1.1.7,6.9-7.2,13.7-14.4,20.7-21.4,8.4-8.4,21.3-8.8,29.2-1.1,8,7.8,7.5,21-1.1,29.5-18.5,18.5-37,37-55.5,55.5-8.2,8.3-20.9,8.6-29.1.4-18.9-18.8-37.8-37.6-56.6-56.5-8.2-8.2-8.4-20.9-.6-28.8,7.5-7.7,20.5-7.6,28.8.4,5.3,5.1,10.3,10.4,15.5,15.6,2.1,2,4.2,4,6.9,6.5v-51.6ZM1725,590.7c2.2-.2,3.6-.2,5.1-.4,46.9-7.1,93.9-14.2,140.8-21.3,77.9-11.8,155.8-23.6,233.7-35.5,50.1-7.6,100.1-15.3,150.2-22.7,3.7-.6,4.5-2,4.5-5.5-.1-28.2,0-56.3,0-84.5,0-1.7-.2-3.5-.3-5.5-2,.2-3.5.3-5,.5-14.3,2.2-28.6,4.4-43,6.6-87.9,13.3-175.9,26.7-263.8,40-72.3,11-144.6,22-216.9,32.7-4.4.7-5.3,2.3-5.3,6.3.2,28,0,56,0,84,0,1.6,0,3.2,0,5.2ZM1684.1,590.9c.3-1.2.6-1.7.6-2.2,0-29.8,0-59.6.1-89.5,0-2.9-1.4-3.5-3.9-3.9-11.5-1.7-23-3.5-34.6-5.2-86.4-13.1-172.9-26.3-259.3-39.4-70.6-10.7-141.3-21.4-211.9-32.1-8-1.2-16-2.3-24.3-3.5-.1,2-.2,3.3-.2,4.6,0,28.5,0,57,0,85.5,0,3.8,1.1,5,4.8,5.6,89.6,13.5,179.1,27.1,268.7,40.7,73.9,11.2,147.8,22.4,221.8,33.6,12.7,1.9,25.3,3.8,38.2,5.7ZM1779.3-395.9h29.7c-10-11-19.4-21.3-29.7-32.6v32.6Z"/>
          <path d="M1544,183.3c8-7.9,15-15.2,22.4-22,3-2.7,6.8-5,10.6-6,8.9-2.4,17.2,1.3,21.5,8.5,4.6,7.9,3.9,17.6-2.4,24.1-19.3,19.6-38.7,39-58.4,58.2-7.3,7.1-19.9,6.9-27.3-.4-19.5-19.1-38.9-38.4-58-57.9-7.1-7.2-6.6-20.7.4-27.8,7.4-7.4,20.5-7.5,28.5.1,6.4,6.1,12.5,12.4,18.8,18.7.9.9,1.9,1.7,4.2,2.3-.3-6.8,0-13.8-1.1-20.5-6.6-43.4-35.7-74.8-79.9-84-23.7-4.9-48-7.2-72.2-10.1-28.9-3.4-57.5-7.9-83.7-21.5-33-17.1-53.6-43.6-59.3-80.9-.5-3.3-.4-6.6-.5-10,0-3.3,0-6.6,0-10.6-1.9,0-3.7,0-5.5,0-23,0-46,0-69,0-36.9,0-64.4-27.6-64.4-64.6,0-106.5,0-213,0-319.5,0-37.6,27.4-65,65-65.1,49,0,98,0,147,0,5.5,0,11.1-.3,16.3,1,3.9,1,8.1,3.5,10.9,6.5,31.8,34.6,63.3,69.5,94.9,104.2,3.9,4.3,5.2,9.4,5.2,15.2,0,42.5,0,85,0,127.5,0,43.2,0,86.3,0,129.5,0,38-27.2,65.2-65.2,65.2-29.5,0-59,.1-88.5-.1-4.7,0-6.1,1.8-6.4,5.9-1.5,17.9,5.8,32.5,17.6,45.1,11.6,12.5,26.8,18.9,42.8,23.6,21,6.3,42.8,8.1,64.5,10.2,25.1,2.4,49.9,5.5,74.2,12.9,56.2,17.2,96.4,70.2,97.2,128.9,0,3.9,0,7.8,0,12.9ZM1272.4-465.4h-4.8c-44.3,0-88.7,0-133,0-16.6,0-26,9.5-26,26.1,0,105.2,0,210.3,0,315.5,0,18.7,8.9,27.6,27.5,27.6,68.3,0,136.7,0,205,0,17.7,0,26.9-9.1,26.9-26.7,0-77,0-154,0-231,0-1.8,0-3.6,0-6.1-2.4,0-4.4,0-6.3,0-22.5,0-45,0-67.5,0-13.7,0-21.7-8.2-21.7-21.8,0-25.7,0-51.3,0-77,0-2,0-3.9,0-6.5ZM1312.7-433v32.8h29.7c-10-11.1-19.4-21.5-29.7-32.8Z"/>
          <path d="M2213.3-56.3c-1.7,12.4-1.9,24.3-5.1,35.3-8.6,30.1-28.1,51.7-55.7,66-23.3,12-48.5,17.3-74.3,20.4-22.8,2.8-45.7,4.8-68.5,8.3-20.6,3.1-40.4,9.2-56.9,22.6-23.2,18.9-35.5,43.6-37.4,73.4,0,1.1,0,2.3,0,4.7,4.6-4.5,8.5-8.2,12.4-11.9,3.6-3.5,7-7.1,10.6-10.6,8-7.6,21-7.5,28.5,0,7.2,7.3,7.4,20.6-.1,28.1-19.1,19.3-38.4,38.4-57.8,57.5-7.5,7.4-20.5,7.1-28.1-.4-18.7-18.5-37.4-37.1-56-55.7-8.7-8.7-9.2-21.8-1.4-29.6,8-8.1,20.9-7.5,30,1.4,6.7,6.5,13.2,13.1,19.9,19.7.2.2.6.2,1.5.5.1-1.9.3-3.6.4-5.3,3.6-50.5,26.3-89.5,70.3-115.1,22.5-13.1,47.7-18.4,73.4-21.5,23-2.8,46-5,69-8.2,18.9-2.6,37.2-7.9,53.5-18.4,17.2-11.2,28-26.8,30.3-47.6,0-.8.1-1.7.1-2.5.1-10.8-.2-11.2-10.8-11.2-30.2,0-60.3,0-90.5,0-38.1,0-65.2-27.1-65.2-65.2,0-106.5,0-213,0-319.5,0-36.9,27.6-64.4,64.6-64.4,49.2,0,98.3,0,147.5,0,4,0,8-.2,11.9,0,6.7.4,11.9,3.7,16.3,8.6,24.4,26.9,48.8,53.8,73.2,80.7,6.5,7.2,13,14.3,19.6,21.4,4.2,4.5,6.2,9.7,6.2,15.9,0,86.2,0,172.3,0,258.5,0,36.3-27.6,63.9-63.9,64-20.8,0-41.7,0-62.5,0-2,0-3.9,0-5,0ZM2304.7-360c-2.3,0-3.9,0-5.5,0-23,0-46,0-69,0-13,0-21.2-8.6-21.2-21.4,0-26.2,0-52.3,0-78.5,0-1.7-.2-3.5-.2-5.4-22.8,0-44.9,0-67.1,0-23.8,0-47.7,0-71.5,0-11.3,0-19.7,5.3-23.1,15-1.5,4.3-1.7,9.1-1.7,13.7,0,104.7,0,209.3,0,314,0,17.1,9.2,26.4,26.1,26.4,69,0,138,0,207,0,3,0,6.1-.1,8.9-.9,11.1-2.9,17.3-12,17.3-25,0-77.3,0-154.7,0-232,0-1.7,0-3.3,0-5.9ZM2249.3-433.3v32.8h29.8c-10.1-11.1-19.5-21.5-29.8-32.8Z"/>
          <path class="cls-1" d="M1739.1-461c0,2.6,0,4.4,0,6.1,0,25.5,0,51,0,76.5,0,15,7.9,22.8,22.8,22.8,22.2,0,44.3,0,66.5,0,1.8,0,3.6,0,6.1,0v5.7c0,77.5,0,155,0,232.5,0,16.1-9.4,25.6-25.4,25.6-69.3,0-138.6,0-208,0-9,0-17.1-2.4-21.8-10.6-2.2-3.8-3.7-8.7-3.7-13.2-.2-107.3-.2-214.6-.1-322,0-13,8.8-22.4,21.9-23.3,5.6-.4,11.3-.2,17-.3,39.5,0,79,0,118.5,0,1.8,0,3.6,0,6.3,0ZM1703.6-284.4c21.5,0,42.9,0,64.4,0,9.7,0,17.3-5.9,19.6-14.7,3.4-13.2-6.1-25.1-20.1-25.1-42.3,0-84.6,0-126.8,0-12.5,0-21.4,8.3-21.6,20-.2,11.4,9,19.9,21.6,19.9,21,0,41.9,0,62.9,0ZM1698.1-125.4c21,0,42,0,62.9,0,12.7,0,21.6-8.2,21.6-19.8,0-11.7-8.9-20.1-21.4-20.1-42.1,0-84.2,0-126.4,0-12.5,0-21.5,8.5-21.4,20.2,0,11.7,8.9,19.8,21.7,19.8,21,0,42,0,62.9,0ZM1703.6-203.4c21.5,0,42.9,0,64.4,0,11.7,0,20.6-8.9,20.5-20.1,0-10.7-8.8-19.7-19.8-19.8-43.1-.1-86.2,0-129.3,0-6.3,0-11.7,2.4-15.7,7.4-5.1,6.5-5.9,13.7-2.4,21.1,3.5,7.4,9.7,11.3,18,11.3,21.5,0,42.9,0,64.4,0ZM1649.5-382.5h0c7.8,0,15.6,0,23.5,0,11.3-.1,20.1-8.8,20.3-19.8.2-10.8-8.8-20-20-20.1-15.8-.2-31.6-.2-47.4,0-11.5.1-20.4,9.2-20.2,20.3.2,11,9,19.5,20.4,19.6,7.8,0,15.6,0,23.5,0Z"/>
          <path class="cls-1" d="M1684.6,320v51.6c-2.7-2.5-4.8-4.4-6.9-6.5-5.2-5.2-10.3-10.5-15.5-15.6-8.3-8-21.3-8.1-28.8-.4-7.7,7.9-7.5,20.5.6,28.8,18.8,18.9,37.7,37.7,56.6,56.5,8.2,8.2,20.9,7.9,29.1-.4,18.5-18.5,37-37,55.5-55.5,8.5-8.5,9-21.7,1.1-29.5-7.9-7.7-20.8-7.3-29.2,1.1-7,7.1-13.8,14.3-20.7,21.4-.4-.2-.8-.5-1.1-.7v-50.7c141,23.4,281.7,46.8,422.4,70.2,0,.4,0,.8,0,1.2-13,2-26.1,4-39.1,6-56.2,8.5-112.3,17-168.5,25.5-54.5,8.2-109,16.5-163.6,24.7-22.4,3.4-44.7,7.4-67.2,9.9-8.7,1-17.8-1.1-26.7-2.4-78.6-11.8-157.1-23.8-235.7-35.7-60.8-9.2-121.5-18.5-182.3-27.7-.9-.1-1.9-.4-2.9-1.5,140.7-23.4,281.4-46.8,422.9-70.3Z"/>
          <path class="cls-1" d="M1725,590.7c0-2,0-3.6,0-5.2,0-28,0-56,0-84,0-4.1.8-5.7,5.3-6.3,72.3-10.8,144.6-21.8,216.9-32.7,87.9-13.3,175.9-26.7,263.8-40,14.3-2.2,28.6-4.4,43-6.6,1.5-.2,2.9-.3,5-.5.1,2,.3,3.8.3,5.5,0,28.2,0,56.3,0,84.5,0,3.4-.7,4.9-4.5,5.5-50.1,7.5-100.1,15.1-150.2,22.7-77.9,11.8-155.8,23.6-233.7,35.5-46.9,7.1-93.9,14.2-140.8,21.3-1.4.2-2.9.2-5.1.4Z"/>
          <path class="cls-1" d="M1684.1,590.9c-12.9-1.9-25.6-3.8-38.2-5.7-73.9-11.2-147.8-22.4-221.8-33.6-89.6-13.6-179.1-27.2-268.7-40.7-3.8-.6-4.9-1.8-4.8-5.6.2-28.5,0-57,0-85.5,0-1.3.1-2.6.2-4.6,8.3,1.2,16.3,2.3,24.3,3.5,70.6,10.7,141.3,21.4,211.9,32.1,86.4,13.1,172.9,26.2,259.3,39.4,11.5,1.8,23,3.6,34.6,5.2,2.5.4,3.9,1,3.9,3.9,0,29.8,0,59.6-.1,89.5,0,.5-.2.9-.6,2.2Z"/>
          <path class="cls-1" d="M1779.3-395.9v-32.6c10.3,11.3,19.7,21.6,29.7,32.6h-29.7Z"/>
          <path class="cls-1" d="M1272.4-465.4c0,2.6,0,4.6,0,6.5,0,25.7,0,51.3,0,77,0,13.7,8,21.8,21.7,21.8,22.5,0,45,0,67.5,0,2,0,3.9,0,6.3,0,0,2.5,0,4.3,0,6.1,0,77,0,154,0,231,0,17.6-9.2,26.7-26.9,26.7-68.3,0-136.7,0-205,0-18.6,0-27.5-8.9-27.5-27.6,0-105.2,0-210.3,0-315.5,0-16.6,9.3-26.1,26-26.1,44.3,0,88.7,0,133,0h4.8ZM1231.6-169.7c-21.1,0-42.3,0-63.4,0-12.3,0-21.2,8.4-21.4,19.7-.1,11.4,9.1,20.2,21.5,20.2,42.1,0,84.2,0,126.3,0,12.6,0,21.5-8.4,21.5-20.1,0-11.6-8.9-19.8-21.6-19.9-21,0-41.9,0-62.9,0ZM1237.3-247.7h0c-21.1,0-42.3,0-63.4,0-12.3,0-21.2,8.3-21.4,19.6-.1,11.7,8.8,20.3,21.2,20.3,42.1,0,84.2,0,126.3,0,3.6,0,7.4-.7,10.6-2.2,8.4-3.9,12.6-13.3,10.6-22.1-2.2-9.2-9.7-15.5-19.5-15.5-21.5-.1-42.9,0-64.4,0ZM1237.8-328.6c-21.5,0-43-.2-64.4.2-4.5,0-9.6,1.8-13.3,4.4-7.1,5-9.2,13.9-6.4,21.9,2.8,8.2,10.3,13.4,19.7,13.4,42.3,0,84.6,0,126.8,0,12.5,0,21.5-8.4,21.5-20,0-11.7-8.8-19.9-21.5-19.9-20.8,0-41.6,0-62.4,0ZM1182.9-387.1c7.5,0,15,0,22.5,0,12.3,0,21.1-8.4,21.2-19.8,0-11.5-8.8-19.9-21-20-15.2,0-30.3,0-45.5,0-12,0-20.8,8.3-20.9,19.6-.2,11.5,8.6,20.1,20.8,20.2,7.7,0,15.3,0,23,0Z"/>
          <path class="cls-1" d="M1312.7-433c10.3,11.3,19.7,21.7,29.7,32.8h-29.7v-32.8Z"/>
          <path class="cls-1" d="M2304.7-360c0,2.6,0,4.3,0,5.9,0,77.3,0,154.7,0,232,0,13-6.2,22-17.3,25-2.9.8-5.9.9-8.9.9-69,0-138,0-207,0-17,0-26.1-9.3-26.1-26.4,0-104.7,0-209.3,0-314,0-4.6.2-9.5,1.7-13.7,3.3-9.7,11.7-15,23.1-15,23.8,0,47.7,0,71.5,0,22.2,0,44.3,0,67.1,0,0,1.9.2,3.7.2,5.4,0,26.2,0,52.3,0,78.5,0,12.8,8.2,21.4,21.2,21.4,23,.1,46,0,69,0,1.6,0,3.2,0,5.5,0ZM2173.8-328.7c-21.1,0-42.3,0-63.4,0-12.1,0-21,8.6-21,20,0,11.3,9.1,19.9,21.1,19.9,42.1,0,84.2,0,126.3,0,12.6,0,21.7-8.3,21.8-19.9.1-11.6-9-20.1-21.9-20.1-21,0-41.9,0-62.9,0ZM2173.8-207.7c21.5,0,42.9.1,64.4,0,11.6,0,20.6-9.1,20.4-20.2-.2-11-8.9-19.7-20.3-19.7-42.9,0-85.9-.1-128.8.1-3.9,0-8.3,1.5-11.6,3.6-7.4,4.7-10.1,13.8-7.6,22,2.7,8.6,10.1,14.1,19.6,14.1,21.3,0,42.6,0,63.9,0ZM2168.5-129.7h0c21.3,0,42.6,0,63.9,0,11.7,0,20.5-8.8,20.5-20.1,0-11.4-8.6-19.8-20.5-19.8-42.6,0-85.2,0-127.8,0-3.5,0-7.4.9-10.5,2.5-8.1,4.1-11.9,13.4-9.7,22,2.4,9.2,9.8,15.2,19.7,15.3,21.5.1,42.9,0,64.4,0ZM2119.4-387.1h0c8,0,16,0,24,0,11.4-.2,20.2-9,20.1-20,0-10.7-8.8-19.6-19.9-19.7-15.8-.2-31.7-.3-47.5,0-11.8.2-20.5,9.1-20.2,20.3.2,11,9,19.4,20.5,19.5,7.7.1,15.3,0,23,0Z"/>
          <path class="cls-1" d="M2249.3-433.3c10.3,11.3,19.7,21.7,29.8,32.8h-29.8v-32.8Z"/>
          <path d="M1703.6-284.4c-21,0-41.9,0-62.9,0-12.6,0-21.7-8.5-21.6-19.9.2-11.7,9.1-20,21.6-20,42.3,0,84.6,0,126.8,0,14,0,23.5,11.9,20.1,25.1-2.3,8.8-9.9,14.7-19.6,14.7-21.5,0-42.9,0-64.4,0Z"/>
          <path d="M1698.1-125.4c-21,0-42,0-62.9,0-12.7,0-21.6-8.1-21.7-19.8,0-11.6,8.9-20.1,21.4-20.2,42.1,0,84.2,0,126.4,0,12.5,0,21.4,8.5,21.4,20.1,0,11.6-8.9,19.8-21.6,19.8-21,0-42,0-62.9,0Z"/>
          <path d="M1703.6-203.4c-21.5,0-42.9,0-64.4,0-8.3,0-14.5-3.9-18-11.3-3.5-7.4-2.7-14.6,2.4-21.1,4-5,9.4-7.4,15.7-7.4,43.1,0,86.2-.1,129.3,0,11.1,0,19.8,9.1,19.8,19.8,0,11.2-8.9,20-20.5,20.1-21.5,0-42.9,0-64.4,0Z"/>
          <path d="M1649.5-382.5c-7.8,0-15.6,0-23.5,0-11.4-.1-20.2-8.6-20.4-19.6-.2-11.1,8.7-20.2,20.2-20.3,15.8-.1,31.6-.2,47.4,0,11.2.1,20.2,9.3,20,20.1-.2,11-9,19.7-20.3,19.8-7.8,0-15.6,0-23.5,0h0Z"/>
          <path d="M1231.6-169.7c21,0,41.9,0,62.9,0,12.7,0,21.6,8.3,21.6,19.9,0,11.7-8.9,20.1-21.5,20.1-42.1,0-84.2,0-126.3,0-12.3,0-21.6-8.8-21.5-20.2.1-11.3,9.1-19.7,21.4-19.7,21.1,0,42.3,0,63.4,0Z"/>
          <path d="M1237.3-247.7c21.5,0,42.9,0,64.4,0,9.8,0,17.3,6.3,19.5,15.5,2.1,8.8-2.1,18.2-10.6,22.1-3.2,1.5-7,2.2-10.6,2.2-42.1.1-84.2.1-126.3,0-12.4,0-21.3-8.7-21.2-20.3.1-11.3,9.1-19.6,21.4-19.6,21.1,0,42.3,0,63.4,0h0Z"/>
          <path d="M1237.8-328.6c20.8,0,41.6,0,62.4,0,12.7,0,21.5,8.2,21.5,19.9,0,11.6-9,20-21.5,20-42.3,0-84.6,0-126.8,0-9.3,0-16.8-5.3-19.7-13.4-2.8-8-.7-16.8,6.4-21.9,3.7-2.6,8.8-4.3,13.3-4.4,21.5-.4,42.9-.2,64.4-.2Z"/>
          <path d="M1182.9-387.1c-7.7,0-15.3,0-23,0-12.2-.1-20.9-8.7-20.8-20.2.1-11.3,8.9-19.5,20.9-19.6,15.2,0,30.3,0,45.5,0,12.3,0,21.1,8.5,21,20,0,11.5-8.9,19.8-21.2,19.8-7.5,0-15,0-22.5,0Z"/>
          <path d="M2173.8-328.7c21,0,41.9,0,62.9,0,12.9,0,22.1,8.4,21.9,20.1-.1,11.5-9.2,19.8-21.8,19.9-42.1,0-84.2,0-126.3,0-12.1,0-21.1-8.6-21.1-19.9,0-11.4,8.9-20,21-20,21.1,0,42.3,0,63.4,0Z"/>
          <path d="M2173.8-207.7c-21.3,0-42.6,0-63.9,0-9.5,0-16.9-5.6-19.6-14.1-2.5-8.2.2-17.3,7.6-22,3.3-2.1,7.7-3.6,11.6-3.6,42.9-.3,85.9-.2,128.8-.1,11.4,0,20.2,8.7,20.3,19.7.2,11-8.8,20.1-20.4,20.2-21.5.1-42.9,0-64.4,0Z"/>
          <path d="M2168.5-129.7c-21.5,0-42.9,0-64.4,0-9.9,0-17.4-6.1-19.7-15.3-2.2-8.6,1.6-17.9,9.7-22,3.1-1.6,7-2.5,10.5-2.5,42.6-.2,85.2-.2,127.8,0,11.9,0,20.5,8.5,20.5,19.8,0,11.3-8.8,20-20.5,20.1-21.3,0-42.6,0-63.9,0h0Z"/>
          <path d="M2119.4-387.1c-7.7,0-15.3,0-23,0-11.6-.2-20.3-8.5-20.5-19.5-.2-11.2,8.4-20.2,20.2-20.3,15.8-.2,31.7-.2,47.5,0,11.1.2,19.8,9.1,19.9,19.7,0,11-8.7,19.8-20.1,20-8,.2-16,0-24,0h0Z"/>
        </g>
      </g>
      <g id="hYDrJa.tif">
        <g>
          <path d="M2.5,62.3c.6-2.1,1.4-4,2.9-5.6,5.1-5,13.6-3.2,16.1,3.4.4.9.8,1.2,1.7,1.2,7.5,0,14.9,0,22.4,0,.4,0,.8,0,1.3,0,0-.5,0-.9,0-1.3,0-2.5.1-5.1,0-7.6-.2-3.5,1.5-6,4.3-7.8,3.2-2.1,6.9-2.9,10.6-3.2,4.4-.3,8.8,0,12.9,1.8,1.4.6,2.7,1.4,3.9,2.3,2.1,1.6,3.1,3.7,3,6.4,0,3.1,0,6.1,0,9.3.4,0,.8,0,1.1,0,7.6,0,15.1,0,22.7,0,.8,0,1.2-.2,1.6-1.1,1.7-4.6,6.3-7.1,11.1-6.2,4.6.9,8,5,8,9.7,0,4.7-3.4,8.8-7.9,9.6-4.8.9-9.4-1.6-11.2-6.2-.2-.6-.4-1.1-1.3-1.1-7.8,0-15.6,0-23.4,0-.2,0-.3,0-.6,0,0,.4,0,.8,0,1.2,0,2.7,0,5.3,0,8,0,2.8-1.1,5-3.2,6.7-2.3,1.9-5.1,2.9-8,3.5-5.8,1.1-11.6.9-17-1.5-1.5-.7-2.9-1.7-4.2-2.8-1.6-1.4-2.4-3.3-2.3-5.5,0-3.1,0-6.3,0-9.5-.4,0-.8,0-1.1,0-7.6,0-15.2,0-22.8,0-.6,0-1.1,0-1.4.8-1.7,4.4-5.6,6.9-10,6.6-4.4-.3-7.9-3.4-9-8,0-.2-.1-.3-.2-.4,0-1,0-1.9,0-2.9ZM64.3,46.2c-1.5.1-3,.2-4.4.5-2.5.4-5,1.1-6.9,2.9-1.3,1.2-1.3,2.3,0,3.5.5.5,1.1,1,1.8,1.2,6.4,2.8,12.9,2.9,19.3,0,1.3-.6,2.7-1.3,2.7-2.9,0-1.7-1.5-2.4-2.8-3-3-1.6-6.3-2-9.6-2.1ZM52,71.1c0,1.3.1,2.6,0,3.8-.2,2,.7,3.3,2.4,4.2.7.4,1.4.7,2.1,1,3.7,1.4,7.5,1.5,11.4,1.1,2.5-.3,4.8-.9,6.9-2.3.8-.5,1.7-1.3,1.8-2.1.3-1.8,0-3.7,0-5.6-8.3,3.6-16.4,3.6-24.7,0ZM52,58.6c0,1.4.1,2.6,0,3.8-.2,2,.7,3.2,2.3,4.1.8.4,1.7.8,2.5,1.1,3.9,1.3,7.8,1.5,11.8.8,2.3-.4,4.5-1,6.4-2.4.7-.5,1.5-1.3,1.6-2,.2-1.8,0-3.6,0-5.5-8.3,3.6-16.4,3.6-24.7,0ZM111.4,63.8c0,2.7,2.2,4.9,4.9,4.9,2.7,0,4.9-2.1,5-4.9,0-2.8-2.2-5-5-5-2.7,0-4.9,2.2-4.9,4.9ZM17.3,63.7c0-2.7-2.2-4.9-4.9-4.9-2.7,0-4.9,2.2-4.9,4.9,0,2.8,2.2,5,5,5,2.7,0,4.9-2.2,4.9-5Z"/>
          <path d="M64.3,101.3c-16.7,0-31.6-11.2-36.1-27.1-.3-1.1-.3-2.2.7-3,.8-.7,1.9-.9,2.7-.3.7.5,1.2,1.4,1.5,2.2,2.5,7.9,7.2,14.1,14.2,18.4,18.1,11.2,42,2.1,48.2-18.2.7-2.2,1.8-3,3.4-2.6,1.6.5,2.1,1.8,1.4,4-4.8,15.7-19.5,26.6-36,26.6Z"/>
          <path d="M100.7,54.2c0,1.5-.8,2.5-2,2.7-1.2.2-2.3-.4-2.8-1.6-.5-1.2-.8-2.5-1.3-3.8-5.2-12.8-18-20.9-31.9-20.3-13.5.6-25.6,10-29.5,23-.7,2.2-1.8,3-3.3,2.6-1.6-.5-2.1-1.8-1.4-4.1,5-16.4,20.7-27.3,37.9-26.4,15.9.8,29.7,11.7,34.1,26.9.1.4.2.8.2,1Z"/>
          <path class="cls-1" d="M64.3,46.2c3.3.1,6.6.5,9.6,2.1,1.3.7,2.8,1.4,2.8,3,0,1.6-1.5,2.4-2.7,2.9-6.4,2.8-12.9,2.8-19.3,0-.6-.3-1.2-.8-1.8-1.2-1.3-1.2-1.3-2.3,0-3.5,2-1.7,4.4-2.4,6.9-2.9,1.5-.2,3-.3,4.4-.5Z"/>
          <path class="cls-1" d="M52,71.1c8.3,3.6,16.5,3.6,24.7,0,0,1.9.2,3.8,0,5.6-.1.8-1.1,1.6-1.8,2.1-2.1,1.4-4.5,2-6.9,2.3-3.9.5-7.7.3-11.4-1.1-.7-.3-1.4-.6-2.1-1-1.7-.9-2.6-2.1-2.4-4.2.1-1.2,0-2.5,0-3.8Z"/>
          <path class="cls-1" d="M52,58.6c8.3,3.6,16.5,3.6,24.7,0,0,1.9.2,3.7,0,5.5,0,.7-.9,1.5-1.6,2-1.9,1.4-4.1,2-6.4,2.4-4,.6-7.9.5-11.8-.8-.9-.3-1.7-.7-2.5-1.1-1.6-.9-2.6-2.1-2.3-4.1.1-1.2,0-2.5,0-3.8Z"/>
          <path class="cls-1" d="M111.4,63.8c0-2.7,2.2-4.9,4.9-4.9,2.8,0,5,2.2,5,5,0,2.7-2.2,4.9-5,4.9-2.7,0-4.9-2.2-4.9-4.9Z"/>
          <path class="cls-1" d="M17.3,63.7c0,2.7-2.1,4.9-4.9,5-2.8,0-5-2.2-5-5,0-2.7,2.2-4.9,4.9-4.9,2.7,0,4.9,2.2,4.9,4.9Z"/>
        </g>
      </g>
    </g>
  </g>
</svg>